{"title":"Melodifestivalen.2016.Deltavling.3.SWEDiSH.720p.WEBRiP.H264","uid":13625180,"size":1859158972,"categoryP":"video","categoryS":"hd___tv_shows","magnet":"?xt=urn:btih:3fd496ce5d8d779919827ba6df4306d537cb3c4b&amp;dn=Melodifestivalen.2016.Deltavling.3.SWEDiSH.720p.WEBRiP.H264&amp;tr=udp%3A%2F%2Ftracker.leechers-paradise.org%3A6969&amp;tr=udp%3A%2F%2Fzer0day.ch%3A1337&amp;tr=udp%3A%2F%2Fopen.demonii.com%3A1337&amp;tr=udp%3A%2F%2Ftracker.coppersurfer.tk%3A6969&amp;tr=udp%3A%2F%2Fexodus.desync.com%3A6969","seeders":0,"leechers":1,"uploader":null,"files":1,"time":1456007954,"description":"Källa: SVT play\r\n\r\n\r\nStartfält:\r\n\r\n1. SaRaha - Kizunguzungu\r\n2. Swingfly feat. Helena Gutarra - You Carved Your Name\r\n3. SMILO - Weight of the World\r\n4. After Dark - Kom ut som en stjärna\r\n5. Lisa Ajax - My Heart Wants Me Dead\r\n6. Boris René - Put Your Love on Me\r\n7. Oscar Zia - Human\r\n\r\n\r\nMediaInfo:\r\n\r\nGeneral\r\nComplete name                            : Melodifestivalen.2016.Deltavling.3.SWEDiSH.720p.WEBRiP.H264.mp4\r\nFormat                                   : MPEG-4\r\nFormat profile                           : Base Media\r\nCodec ID                                 : isom\r\nFile size                                : 1.73 GiB\r\nDuration                                 : 1h 28mn\r\nOverall bit rate                         : 2 801 Kbps\r\nWriting application                      : Lavf57.14.100\r\n\r\nVideo\r\nID                                       : 1\r\nFormat                                   : AVC\r\nFormat/Info                              : Advanced Video Codec\r\nFormat profile                           :   \r\nFormat settings, CABAC                   : Yes\r\nFormat settings, ReFrames                : 1 frame\r\nCodec ID                                 : avc1\r\nCodec ID/Info                            : Advanced Video Coding\r\nDuration                                 : 1h 28mn\r\nBit rate                                 : 2 701 Kbps\r\nWidth                                    : 1 280 pixels\r\nHeight                                   : 720 pixels\r\nDisplay aspect ratio                     : 16:9\r\nFrame rate mode                          : Constant\r\nFrame rate                               : 25.000 fps\r\nStandard                                 : PAL\r\nColor space                              : YUV\r\nChroma subsampling                       : 4:2:0\r\nBit depth                                : 8 bits\r\nScan type                                : Progressive\r\nBits/(Pixel*Frame)                       : 0.117\r\nStream size                              : 1.67 GiB (96%)\r\nColor range                              : Full\r\nColor primaries                          : BT.601 PAL\r\nTransfer characteristics                 : BT.470 System B, BT.470 System G\r\nMatrix coefficients                      : BT.601\r\n\r\nAudio\r\nID                                       : 2\r\nFormat                                   : AAC\r\nFormat/Info                              : Advanced Audio Codec\r\nFormat profile                           : LC\r\nCodec ID                                 : 40\r\nDuration                                 : 1h 28mn\r\nBit rate mode                            : Constant\r\nBit rate                                 : 96.0 Kbps\r\nChannel(s)                               : 2 channels\r\nChannel positions                        : Front: L R\r\nSampling rate                            : 48.0 KHz\r\nCompression mode                         : Lossy\r\nStream size                              : 60.8 MiB (3%)","torrent":{"xt":"urn:btih:3fd496ce5d8d779919827ba6df4306d537cb3c4b","amp;dn":"Melodifestivalen.2016.Deltavling.3.SWEDiSH.720p.WEBRiP.H264","amp;tr":["udp%3A%2F%2Ftracker.leechers-paradise.org%3A6969","udp%3A%2F%2Fzer0day.ch%3A1337","udp%3A%2F%2Fopen.demonii.com%3A1337","udp%3A%2F%2Ftracker.coppersurfer.tk%3A6969","udp%3A%2F%2Fexodus.desync.com%3A6969"],"infoHash":"3fd496ce5d8d779919827ba6df4306d537cb3c4b","infoHashBuffer":{"type":"Buffer","data":[63,212,150,206,93,141,119,153,25,130,123,166,223,67,6,213,55,203,60,75]},"announce":[],"urlList":[]}}